<mxfile host="app.diagrams.net" agent="Mozilla/5.0 (X11; Linux x86_64) AppleWebKit/537.36 (KHTML, like Gecko) Chrome/127.0.0.0 Safari/537.36" version="24.7.14">
  <diagram name="Page-1" id="Syr9dZVnW8Cef5hRC3_7">
    <mxGraphModel dx="794" dy="1180" grid="1" gridSize="10" guides="1" tooltips="1" connect="1" arrows="1" fold="1" page="1" pageScale="1" pageWidth="827" pageHeight="1169" math="0" shadow="0">
      <root>
        <mxCell id="0" />
        <mxCell id="1" parent="0" />
        <mxCell id="G0OHek6suNoKyGzXeP7x-1" value="Sunitinib" style="ellipse;whiteSpace=wrap;html=1;aspect=fixed;fillColor=#fff2cc;strokeColor=#d6b656;" vertex="1" parent="1">
          <mxGeometry x="160" y="190" width="80" height="80" as="geometry" />
        </mxCell>
        <mxCell id="G0OHek6suNoKyGzXeP7x-4" value="Trial" style="rounded=0;orthogonalLoop=1;jettySize=auto;html=1;exitX=1;exitY=1;exitDx=0;exitDy=0;entryX=0;entryY=0;entryDx=0;entryDy=0;endArrow=none;endFill=0;" edge="1" parent="1" source="G0OHek6suNoKyGzXeP7x-2" target="G0OHek6suNoKyGzXeP7x-1">
          <mxGeometry relative="1" as="geometry" />
        </mxCell>
        <mxCell id="G0OHek6suNoKyGzXeP7x-2" value="Cabozantinib" style="ellipse;whiteSpace=wrap;html=1;aspect=fixed;fillColor=#fff2cc;strokeColor=#d6b656;" vertex="1" parent="1">
          <mxGeometry x="70" y="80" width="80" height="80" as="geometry" />
        </mxCell>
        <mxCell id="G0OHek6suNoKyGzXeP7x-5" value="Trial" style="rounded=0;orthogonalLoop=1;jettySize=auto;html=1;exitX=0;exitY=1;exitDx=0;exitDy=0;entryX=1;entryY=0;entryDx=0;entryDy=0;endArrow=none;endFill=0;" edge="1" parent="1" source="G0OHek6suNoKyGzXeP7x-3" target="G0OHek6suNoKyGzXeP7x-1">
          <mxGeometry relative="1" as="geometry" />
        </mxCell>
        <mxCell id="G0OHek6suNoKyGzXeP7x-3" value="Pazopanib" style="ellipse;whiteSpace=wrap;html=1;aspect=fixed;fillColor=#fff2cc;strokeColor=#d6b656;" vertex="1" parent="1">
          <mxGeometry x="250" y="80" width="80" height="80" as="geometry" />
        </mxCell>
        <mxCell id="G0OHek6suNoKyGzXeP7x-6" value="&lt;font style=&quot;font-size: 18px;&quot;&gt;(A)&lt;/font&gt;" style="text;html=1;align=center;verticalAlign=middle;whiteSpace=wrap;rounded=0;" vertex="1" parent="1">
          <mxGeometry x="30" y="30" width="30" height="40" as="geometry" />
        </mxCell>
        <mxCell id="G0OHek6suNoKyGzXeP7x-7" value="Sunitinib" style="ellipse;whiteSpace=wrap;html=1;aspect=fixed;fillColor=#fff2cc;strokeColor=#d6b656;" vertex="1" parent="1">
          <mxGeometry x="502" y="190" width="80" height="80" as="geometry" />
        </mxCell>
        <mxCell id="G0OHek6suNoKyGzXeP7x-8" value="Trial" style="rounded=0;orthogonalLoop=1;jettySize=auto;html=1;exitX=1;exitY=1;exitDx=0;exitDy=0;entryX=0;entryY=0;entryDx=0;entryDy=0;endArrow=none;endFill=0;" edge="1" parent="1" source="G0OHek6suNoKyGzXeP7x-9" target="G0OHek6suNoKyGzXeP7x-7">
          <mxGeometry relative="1" as="geometry" />
        </mxCell>
        <mxCell id="G0OHek6suNoKyGzXeP7x-13" value="Estimate" style="edgeStyle=orthogonalEdgeStyle;rounded=0;orthogonalLoop=1;jettySize=auto;html=1;exitX=1;exitY=0.5;exitDx=0;exitDy=0;entryX=0;entryY=0.5;entryDx=0;entryDy=0;endArrow=none;endFill=0;dashed=1;" edge="1" parent="1" source="G0OHek6suNoKyGzXeP7x-9" target="G0OHek6suNoKyGzXeP7x-11">
          <mxGeometry relative="1" as="geometry" />
        </mxCell>
        <mxCell id="G0OHek6suNoKyGzXeP7x-9" value="Cabozantinib" style="ellipse;whiteSpace=wrap;html=1;aspect=fixed;fillColor=#fff2cc;strokeColor=#d6b656;" vertex="1" parent="1">
          <mxGeometry x="412" y="80" width="80" height="80" as="geometry" />
        </mxCell>
        <mxCell id="G0OHek6suNoKyGzXeP7x-10" value="Trial" style="rounded=0;orthogonalLoop=1;jettySize=auto;html=1;exitX=0;exitY=1;exitDx=0;exitDy=0;entryX=1;entryY=0;entryDx=0;entryDy=0;endArrow=none;endFill=0;" edge="1" parent="1" source="G0OHek6suNoKyGzXeP7x-11" target="G0OHek6suNoKyGzXeP7x-7">
          <mxGeometry relative="1" as="geometry" />
        </mxCell>
        <mxCell id="G0OHek6suNoKyGzXeP7x-11" value="Pazopanib" style="ellipse;whiteSpace=wrap;html=1;aspect=fixed;fillColor=#fff2cc;strokeColor=#d6b656;" vertex="1" parent="1">
          <mxGeometry x="592" y="80" width="80" height="80" as="geometry" />
        </mxCell>
        <mxCell id="G0OHek6suNoKyGzXeP7x-12" value="&lt;font style=&quot;font-size: 18px;&quot;&gt;(B)&lt;/font&gt;" style="text;html=1;align=center;verticalAlign=middle;whiteSpace=wrap;rounded=0;" vertex="1" parent="1">
          <mxGeometry x="372" y="30" width="30" height="40" as="geometry" />
        </mxCell>
      </root>
    </mxGraphModel>
  </diagram>
</mxfile>
